<?xml version="1.0" encoding="UTF-8" standalone="no"?>
<svg width="14px" height="14px" viewBox="0 0 14 14" version="1.1" xmlns="http://www.w3.org/2000/svg" xmlns:xlink="http://www.w3.org/1999/xlink">
    <!-- Generator: Sketch 46.2 (44496) - http://www.bohemiancoding.com/sketch -->
    <title>菜单监控-正常</title>
    <desc>Created with Sketch.</desc>
    <defs></defs>
    <g id="Page-1" stroke="none" stroke-width="1" fill="none" fill-rule="evenodd">
        <g id="icon" transform="translate(-162.000000, -20.000000)" fill="#99ABB4">
            <g id="菜单监控-正常" transform="translate(162.000000, 20.000000)">
                <path d="M6,0 L14,0 L14,4 L6,4 L6,0 Z M6,5 L14,5 L14,9 L6,9 L6,5 Z M0,0 L4,0 L4,4 L0,4 L0,0 Z M0,5 L4,5 L4,9 L0,9 L0,5 Z M0,10 L4,10 L4,14 L0,14 L0,10 Z M6,10 L14,10 L14,14 L6,14 L6,10 Z" id="Combined-Shape"></path>
            </g>
        </g>
    </g>
</svg>