<?xml version="1.0" encoding="UTF-8" standalone="no"?>
<svg width="16px" height="14px" viewBox="0 0 16 14" version="1.1" xmlns="http://www.w3.org/2000/svg"
     xmlns:xlink="http://www.w3.org/1999/xlink">
  <!-- Generator: Sketch 46.2 (44496) - http://www.bohemiancoding.com/sketch -->
  <defs></defs>
  <g id="Page-1" stroke="none" stroke-width="1" fill="none" fill-rule="evenodd">
    <g id="icon" transform="translate(-380.000000, -19.000000)" fill="#FFFFFF">
      <g id="退出" transform="translate(380.000000, 19.000000)">
        <path
          d="M11,4 L11,3.5 C11,1.56700338 9.34689754,0 7.30769231,0 L3.69230769,0 C1.65310246,0 0,1.56700338 0,3.5 L0,10.5 C0,12.4329966 1.65310246,14 3.69230769,14 L7.30769231,14 C9.34689754,14 11,12.4329966 11,10.5 L11,10 L9,10 L9,10.5 C9,11.3037959 8.26554293,12 7.30769231,12 L3.69230769,12 C2.73445707,12 2,11.3037959 2,10.5 L2,3.5 C2,2.6962041 2.73445707,2 3.69230769,2 L7.30769231,2 C8.26554293,2 9,2.6962041 9,3.5 L9,4 L11,4 Z"
          id="Path"></path>
        <path d="M12,6 L6,6 L6,8 L12,8 L12,11 L16,7 L12,3 L12,6 Z" id="Combined-Shape" fill-rule="nonzero"></path>
      </g>
    </g>
  </g>
</svg>
